<?xml version="1.0" standalone="no"?>
<!DOCTYPE svg PUBLIC "-//W3C//DTD SVG 20010904//EN"
 "http://www.w3.org/TR/2001/REC-SVG-20010904/DTD/svg10.dtd">
<svg version="1.0" xmlns="http://www.w3.org/2000/svg"
 width="624.000000pt" height="624.000000pt" viewBox="0 0 624.000000 624.000000"
 preserveAspectRatio="xMidYMid meet">

<g transform="translate(0.000000,624.000000) scale(0.100000,-0.100000)"
fill="#000000" stroke="none">
<path d="M2850 6188 c-241 -20 -548 -88 -785 -173 -157 -56 -433 -190 -570
-276 -775 -485 -1291 -1272 -1425 -2174 -27 -181 -37 -511 -21 -694 36 -401
132 -744 311 -1106 163 -330 339 -574 602 -830 78 -78 181 -171 228 -209 615
-491 1437 -738 2196 -661 414 42 745 137 1104 317 632 315 1133 837 1424 1482
141 314 225 640 261 1014 19 198 19 296 0 497 -26 268 -66 467 -146 712 -438
1347 -1759 2220 -3179 2101z m590 -219 c742 -81 1449 -472 1925 -1064 106
-131 253 -364 334 -527 201 -410 293 -805 293 -1268 0 -284 -31 -518 -103
-772 -176 -623 -561 -1197 -1055 -1569 -302 -227 -757 -430 -1164 -518 -231
-49 -585 -67 -821 -41 -464 51 -886 203 -1269 455 -678 447 -1166 1184 -1294
1955 -56 334 -54 687 5 1010 164 899 764 1680 1592 2075 348 165 667 247 1092
279 76 6 358 -3 465 -15z"/>
<path d="M2895 5889 c-548 -45 -1095 -263 -1523 -608 -507 -409 -864 -999
-986 -1629 -40 -207 -50 -315 -50 -542 0 -373 57 -677 189 -1015 41 -107 150
-335 160 -335 2 0 46 22 97 49 121 65 258 117 338 130 303 47 403 49 673 10
134 -19 420 -94 535 -140 57 -23 336 -205 413 -270 54 -45 76 -54 189 -80 107
-23 258 -24 474 -3 188 19 417 14 566 -11 204 -35 427 -129 498 -210 39 -45
72 -117 72 -159 0 -36 -36 -83 -72 -95 -18 -5 -141 -24 -273 -41 -132 -17
-316 -43 -410 -57 -127 -20 -224 -28 -385 -32 l-215 -6 185 -44 184 -45 86 22
c115 30 313 59 495 72 271 20 325 28 382 56 79 38 108 86 108 178 0 54 -6 82
-24 119 -23 48 -23 48 -3 63 21 15 623 487 757 593 98 79 186 121 263 128 l58
5 23 57 c149 359 229 849 202 1229 -40 563 -217 1052 -539 1485 -272 368 -606
646 -1017 847 -462 227 -948 320 -1450 279z m-488 -1764 c-4 -8 -2 -17 3 -20
6 -4 10 -32 10 -65 0 -44 -4 -59 -16 -64 -46 -18 -62 81 -22 134 24 33 33 38
25 15z m-732 -61 l12 -39 7 43 c5 25 13 41 19 39 15 -5 21 -117 8 -130 -8 -8
-11 -2 -11 19 l-1 29 -13 -30 -14 -30 -10 25 c-7 17 -11 19 -11 8 -1 -9 -5
-20 -11 -23 -6 -4 -10 20 -10 65 0 80 16 91 35 24z m213 -28 c-2 -31 -7 -57
-13 -59 -11 -2 -20 97 -10 121 12 32 26 -6 23 -62z m182 59 c16 -20 5 -32 -14
-16 -26 22 -27 -7 -1 -35 30 -33 32 -50 4 -64 -23 -13 -49 2 -49 26 0 19 17
17 24 -3 5 -12 9 -14 18 -5 9 9 5 19 -15 40 -30 31 -33 42 -15 60 16 16 33 15
48 -3z m160 -56 c0 -44 -4 -68 -10 -64 -5 3 -10 35 -10 71 0 36 4 64 10 64 6
0 10 -30 10 -71z m365 39 l14 -33 1 33 c0 17 5 32 10 32 13 0 13 -127 1 -134
-5 -4 -16 13 -24 36 l-15 43 -1 -43 c-1 -66 -21 -40 -21 27 0 51 5 71 17 71 2
0 10 -15 18 -32z m373 2 c2 -22 1 -23 -8 -7 -19 29 -30 19 -30 -27 0 -51 16
-69 29 -34 10 23 10 23 10 -3 1 -30 -24 -46 -45 -28 -17 14 -19 100 -2 117 19
19 43 10 46 -18z m199 -43 c2 -42 -1 -66 -7 -62 -6 3 -10 17 -10 31 0 13 -4
24 -10 24 -5 0 -10 -14 -10 -31 0 -17 -4 -28 -10 -24 -5 3 -10 35 -10 71 l0
65 28 -3 c26 -3 27 -5 29 -71z m163 3 c0 -32 -4 -62 -10 -65 -6 -4 -10 20 -10
65 0 45 4 69 10 65 6 -3 10 -33 10 -65z m188 45 c3 -16 1 -18 -9 -7 -7 6 -17
12 -21 12 -15 0 -8 -27 12 -45 24 -22 26 -60 4 -69 -20 -8 -44 10 -44 33 1 14
2 14 14 -1 17 -23 26 -23 26 0 0 9 -9 23 -20 30 -19 12 -27 51 -13 66 14 13
48 1 51 -19z m192 15 c0 -5 -4 -10 -10 -10 -5 0 -10 -25 -10 -55 0 -30 -4 -55
-10 -55 -5 0 -10 25 -10 55 0 30 -4 55 -10 55 -5 0 -10 5 -10 10 0 6 14 10 30
10 17 0 30 -4 30 -10z m160 -54 c0 -36 -4 -68 -10 -71 -6 -4 -10 20 -10 64 0
41 4 71 10 71 6 0 10 -28 10 -64z m189 14 c6 -28 11 -61 11 -73 -1 -20 -2 -21
-14 -4 -15 20 -32 22 -39 5 -2 -7 -7 -10 -11 -7 -6 6 6 81 19 117 9 26 24 10
34 -38z m176 18 l14 -33 1 33 c0 17 5 32 10 32 7 0 10 -25 8 -67 -3 -72 -17
-85 -33 -31 l-9 33 -4 -32 c-6 -58 -22 -35 -22 32 0 72 13 84 35 33z m220 10
c18 -83 22 -109 15 -113 -4 -3 -10 2 -14 10 -7 18 -33 20 -39 3 -2 -7 -7 -11
-10 -8 -5 5 7 83 18 118 7 20 24 14 30 -10z m-2736 -364 c42 -17 60 -41 37
-50 -8 -3 -25 1 -38 9 -40 26 -109 30 -229 12 -113 -16 -317 -62 -331 -74 -15
-13 -30 -195 -33 -386 -2 -205 -11 -333 -25 -355 -4 -7 -13 -9 -20 -5 -9 6
-10 55 -5 205 l7 198 -28 52 c-64 117 -175 152 -364 114 -60 -12 -84 -14 -93
-5 -36 36 593 242 871 286 120 18 204 18 251 -1z m2841 -84 c0 -22 -6 -63 -14
-92 -19 -75 -39 -330 -34 -437 4 -84 15 -123 25 -93 5 13 43 17 43 4 0 -17
-39 -44 -57 -40 -39 7 -48 53 -48 235 0 94 -1 171 -2 170 0 -1 -22 -30 -47
-65 -43 -58 -46 -66 -46 -125 -1 -128 -55 -294 -112 -342 -38 -32 -72 -32
-105 1 -23 23 -25 31 -20 80 7 69 49 148 132 246 36 43 65 82 65 87 0 28 -27
17 -81 -34 -70 -65 -102 -70 -107 -19 -4 45 41 88 86 81 21 -4 43 0 61 11 28
15 31 15 48 -1 18 -16 21 -14 54 31 68 91 82 122 100 224 17 97 32 133 50 122
5 -3 9 -23 9 -44z m-983 24 c8 -22 -20 -110 -68 -213 l-39 -84 1 -131 c0 -148
12 -199 47 -204 33 -5 29 -34 -5 -30 -46 5 -75 77 -81 199 l-5 98 -45 -39
c-47 -42 -81 -50 -102 -25 -29 35 45 108 103 103 37 -4 51 24 67 127 13 88 40
167 66 196 21 23 52 25 61 3z m-1722 -284 c-1 -14 -4 -38 -8 -55 l-7 -30 17
33 c25 48 55 41 69 -17 7 -31 12 -40 17 -28 10 27 48 20 96 -18 50 -40 80 -44
106 -15 18 20 45 27 45 12 0 -12 -52 -58 -73 -65 -23 -9 -73 12 -114 47 l-32
27 -16 -31 c-24 -47 -47 -36 -60 29 l-10 54 -23 -70 c-23 -72 -43 -93 -68 -72
-18 15 -18 56 1 109 20 58 18 73 -4 30 -28 -52 -96 -126 -130 -139 -71 -30
-125 14 -102 81 15 41 39 68 63 68 34 0 34 -31 0 -59 -33 -27 -42 -65 -19 -74
37 -14 121 61 162 143 25 51 46 71 69 68 15 -2 21 -10 21 -28z m419 -40 c-1
-8 -4 -35 -8 -60 l-7 -45 21 42 c27 52 57 64 82 33 10 -12 18 -35 18 -51 0
-34 8 -36 43 -9 27 21 47 26 47 11 0 -15 -32 -43 -67 -57 -17 -8 -44 -26 -58
-40 -18 -18 -34 -25 -50 -21 -21 4 -25 0 -31 -31 -4 -19 -4 -84 0 -144 5 -87
4 -109 -6 -106 -29 10 -42 81 -42 233 -1 171 15 268 42 263 9 -2 17 -10 16
-18z m566 -24 c0 -25 -26 -54 -37 -42 -4 4 -2 15 5 26 18 30 -5 34 -33 6 -33
-33 -32 -51 7 -67 28 -11 35 -10 69 9 72 42 96 23 25 -20 -36 -21 -43 -30 -39
-50 6 -30 -27 -61 -59 -56 -29 4 -35 34 -12 60 17 18 17 20 2 29 -50 28 -61
67 -30 106 37 47 102 47 102 -1z m2116 -11 c-4 -15 1 -28 14 -40 16 -14 20
-31 20 -77 0 -40 4 -57 11 -53 6 4 31 39 57 79 32 50 47 66 50 53 2 -10 -9
-39 -24 -65 -75 -131 -134 -138 -134 -15 0 54 -3 63 -18 63 -43 0 -55 47 -21
81 17 17 23 18 35 8 9 -7 13 -21 10 -34z m-3526 28 c0 -5 -5 -25 -11 -46 -18
-64 -7 -73 50 -40 50 27 75 27 52 -1 -7 -8 -32 -25 -56 -36 -59 -28 -85 -16
-85 40 0 21 5 42 11 45 6 4 8 13 5 20 -2 7 -2 16 1 19 9 9 33 7 33 -1z m1160
-9 c8 -8 13 -29 13 -45 0 -26 3 -30 21 -24 54 17 69 18 64 4 -2 -8 -25 -21
-51 -30 -25 -8 -56 -27 -67 -42 -40 -51 -87 -26 -76 40 3 21 6 47 7 57 1 51
59 77 89 40z m2190 0 c8 -8 13 -29 13 -45 0 -26 3 -30 21 -24 54 17 69 18 64
4 -2 -8 -25 -21 -51 -30 -25 -8 -56 -27 -67 -42 -40 -51 -87 -26 -76 40 3 21
6 47 7 57 1 51 59 77 89 40z m415 6 c4 -6 3 -16 -2 -23 -13 -17 -16 -74 -5
-81 5 -3 26 5 46 19 56 38 78 29 34 -13 -49 -45 -116 -48 -119 -4 -2 35 3 67
12 70 5 2 7 8 3 13 -6 11 3 29 16 29 5 0 12 -5 15 -10z m-1477 -23 c2 -11 -8
-23 -27 -35 -23 -12 -31 -24 -31 -44 0 -39 30 -37 90 7 48 35 70 43 70 26 0
-10 -63 -62 -97 -80 -36 -19 -71 -13 -89 14 -20 31 -13 82 17 114 24 26 62 25
67 -2z m1764 -37 c11 -27 26 -50 33 -50 6 0 22 11 35 25 23 25 50 33 50 16 0
-15 -70 -71 -89 -71 -21 0 -46 26 -56 58 -7 23 -7 23 -46 -13 -42 -37 -58 -42
-77 -23 -34 34 9 95 71 101 23 2 46 4 50 5 4 1 17 -20 29 -48z"/>
<path d="M2382 4044 c2 -27 7 -48 12 -46 14 3 11 85 -3 90 -9 3 -11 -10 -9
-44z"/>
<path d="M3130 4070 c0 -11 5 -20 10 -20 6 0 10 9 10 20 0 11 -4 20 -10 20 -5
0 -10 -9 -10 -20z"/>
<path d="M4030 4040 c0 -11 4 -20 9 -20 5 0 7 9 4 20 -3 11 -7 20 -9 20 -2 0
-4 -9 -4 -20z"/>
<path d="M4430 4041 c0 -12 5 -21 10 -21 6 0 10 6 10 14 0 8 -4 18 -10 21 -5
3 -10 -3 -10 -14z"/>
<path d="M910 3546 c-85 -29 -161 -54 -167 -57 -7 -2 27 -4 76 -5 75 0 96 -4
144 -28 52 -25 86 -56 113 -102 8 -14 13 12 20 114 9 129 8 132 -11 131 -11 0
-90 -24 -175 -53z"/>
<path d="M4204 3246 c-16 -13 -26 -27 -23 -31 4 -3 20 5 35 19 16 13 26 27 23
31 -4 3 -20 -5 -35 -19z"/>
<path d="M4274 3138 c-69 -89 -104 -160 -104 -213 0 -71 42 -87 84 -32 33 43
75 173 83 253 3 35 3 64 0 64 -3 0 -32 -33 -63 -72z"/>
<path d="M3531 3633 c-14 -27 -44 -134 -38 -139 4 -4 37 81 52 134 8 26 0 29
-14 5z"/>
<path d="M3328 3280 c-23 -20 -28 -30 -17 -30 19 0 69 37 69 51 0 17 -19 9
-52 -21z"/>
<path d="M1822 3253 c-6 -20 -7 -32 -2 -27 10 10 25 64 18 64 -3 0 -10 -16
-16 -37z"/>
<path d="M2301 3251 c-24 -57 -25 -61 -11 -61 23 0 50 41 50 75 0 49 -14 44
-39 -14z"/>
<path d="M2787 3173 c-10 -9 -9 -23 2 -23 5 0 11 7 15 15 5 15 -5 20 -17 8z"/>
<path d="M2542 3288 c2 -12 11 -24 21 -26 14 -3 18 1 15 20 -2 12 -11 24 -21
26 -14 3 -18 -1 -15 -20z"/>
<path d="M2526 3214 c-4 -9 -4 -19 -1 -22 6 -6 35 18 35 29 0 16 -28 10 -34
-7z"/>
<path d="M4732 3288 c2 -12 11 -24 21 -26 14 -3 18 1 15 20 -2 12 -11 24 -21
26 -14 3 -18 -1 -15 -20z"/>
<path d="M4716 3214 c-4 -9 -4 -19 -1 -22 6 -6 35 18 35 29 0 16 -28 10 -34
-7z"/>
<path d="M5366 3258 c-23 -33 -9 -36 22 -5 21 21 23 27 10 27 -9 0 -24 -10
-32 -22z"/>
</g>
</svg>
